<?xml version="1.0" encoding="UTF-8"?><svg id="a" xmlns="http://www.w3.org/2000/svg" viewBox="0 0 819.36 851.91"><defs><style>.b{fill:#fff;}</style></defs><g><path class="b" d="M113.6,77.92C113.6,35.42,147.84,0,190.34,0s75.56,35.42,75.56,77.92-33.05,76.74-75.56,76.74-76.74-34.24-76.74-76.74Zm135.76,191.25V847.64h-116.87V269.17h116.87Z"/><path class="b" d="M249.36,567.85v279.79h-116.88v-291.6c0-168.82,100.35-301.04,286.87-301.04s291.6,132.22,291.6,299.86v292.77h-116.87v-278.61c0-108.61-59.03-201.87-174.73-201.87s-170,93.26-170,200.7Z"/></g><path class="b" d="M345.5,527.59c0-42.5,34.24-77.92,76.74-77.92s75.56,35.42,75.56,77.92-33.05,76.74-75.56,76.74-76.74-34.24-76.74-76.74Z"/><rect class="b" x="344.4" y="687.96" width="163.95" height="163.95"/></svg>